<svg width="22" height="22" viewBox="0 0 22 22" fill="none" xmlns="http://www.w3.org/2000/svg">
<path d="M1 11.9091C1 13.25 2.15547 14.3353 3.57713 14.3353H18.423C19.8445 14.3353 21 13.25 21 11.9091V10.0909C21 8.75003 19.8445 7.66479 18.423 7.66479H3.57713C2.15547 7.66479 1 8.75003 1 10.0909V11.9091Z" stroke="black" stroke-width="1.71" stroke-miterlimit="10" stroke-linecap="round" stroke-linejoin="round"/>
<path d="M1 5.24431C1 6.57954 2.15547 7.66477 3.57713 7.66477H18.423C19.8445 7.66477 21 6.57954 21 5.24431V3.42613C21 2.08522 19.8445 1 18.423 1H3.57713C2.15547 1 1 2.08522 1 3.42613V5.24431Z" stroke="black" stroke-width="1.71" stroke-miterlimit="10" stroke-linecap="round" stroke-linejoin="round"/>
<path d="M1 18.5739C1 19.9148 2.15547 21 3.57713 21H18.423C19.8445 21 21 19.9148 21 18.5739V16.7557C21 15.4206 19.8445 14.3353 18.423 14.3353H3.57713C2.15547 14.3353 1 15.4206 1 16.7557V18.5739Z" stroke="black" stroke-width="1.71" stroke-miterlimit="10" stroke-linecap="round" stroke-linejoin="round"/>
<path d="M18.3563 4.34549C18.3563 4.84549 17.9208 5.25458 17.3883 5.25458C16.8499 5.25458 16.4204 4.84549 16.4204 4.34549C16.4204 3.8398 16.8499 3.4364 17.3883 3.4364C17.9208 3.4364 18.3563 3.8398 18.3563 4.34549Z" fill="black"/>
<path d="M18.3563 11.1818C18.3563 11.6819 17.9208 12.0909 17.3883 12.0909C16.8499 12.0909 16.4204 11.6819 16.4204 11.1818C16.4204 10.6761 16.8499 10.2727 17.3883 10.2727C17.9208 10.2727 18.3563 10.6761 18.3563 11.1818Z" fill="black"/>
<path d="M18.3563 17.8726C18.3563 18.3725 17.9208 18.7817 17.3883 18.7817C16.8499 18.7817 16.4204 18.3725 16.4204 17.8726C16.4204 17.3668 16.8499 16.9635 17.3883 16.9635C17.9208 16.9635 18.3563 17.3668 18.3563 17.8726Z" fill="black"/>
</svg>
