<svg width="20" height="20" viewBox="0 0 20 20" fill="none" xmlns="http://www.w3.org/2000/svg">
<path fill-rule="evenodd" clip-rule="evenodd" d="M12 16.3333V13H15.3333L15.3342 16.3333H12ZM15.3333 11.3333H12C11.0808 11.3333 10.3333 12.0808 10.3333 13V16.3333C10.3333 17.2525 11.0808 18 12 18H15.3333C16.2525 18 17 17.2525 17 16.3333V13C17 12.0808 16.2525 11.3333 15.3333 11.3333ZM3.66667 16.3333V13H7L7.00083 16.3333H3.66667ZM7 11.3333H3.66667C2.7475 11.3333 2 12.0808 2 13V16.3333C2 17.2525 2.7475 18 3.66667 18H7C7.91917 18 8.66667 17.2525 8.66667 16.3333V13C8.66667 12.0808 7.91917 11.3333 7 11.3333ZM12 8V4.66667H15.3333L15.3342 8H12ZM15.3333 3H12C11.0808 3 10.3333 3.7475 10.3333 4.66667V8C10.3333 8.91917 11.0808 9.66667 12 9.66667H15.3333C16.2525 9.66667 17 8.91917 17 8V4.66667C17 3.7475 16.2525 3 15.3333 3ZM3.66667 8V4.66667H7L7.00083 8H3.66667ZM7 3H3.66667C2.7475 3 2 3.7475 2 4.66667V8C2 8.91917 2.7475 9.66667 3.66667 9.66667H7C7.91917 9.66667 8.66667 8.91917 8.66667 8V4.66667C8.66667 3.7475 7.91917 3 7 3Z" fill="#0C5BC6"/>
</svg>
