<svg width="20" height="20" viewBox="0 0 20 20" fill="none" xmlns="http://www.w3.org/2000/svg">
<path fill-rule="evenodd" clip-rule="evenodd" d="M5.83333 13.3333C5.83333 12.875 6.20833 12.5 6.66667 12.5C7.125 12.5 7.5 12.875 7.5 13.3333C7.5 13.7917 7.125 14.1667 6.66667 14.1667C6.20833 14.1667 5.83333 13.7917 5.83333 13.3333ZM10 12.5H13.3333C13.7917 12.5 14.1667 12.875 14.1667 13.3333C14.1667 13.7917 13.7917 14.1667 13.3333 14.1667H10C9.54167 14.1667 9.16667 13.7917 9.16667 13.3333C9.16667 12.875 9.54167 12.5 10 12.5ZM15 15.8333H5C4.54083 15.8333 4.16667 15.46 4.16667 15V10.8333H15.8333V15C15.8333 15.46 15.4592 15.8333 15 15.8333ZM6.95167 4.6275C7.09333 4.34333 7.37917 4.16667 7.69667 4.16667H12.3033C12.6208 4.16667 12.9067 4.34333 13.0483 4.6275L15.3183 9.16667H4.68167L6.95167 4.6275ZM17.3242 9.45167L14.5392 3.88167C14.1133 3.03 13.2567 2.5 12.3033 2.5H7.69667C6.74333 2.5 5.88667 3.03 5.46083 3.88167L2.67583 9.45167C2.56083 9.68167 2.5 9.94 2.5 10.1967V15C2.5 16.3783 3.62167 17.5 5 17.5H15C16.3783 17.5 17.5 16.3783 17.5 15V10.1967C17.5 9.94 17.4392 9.68167 17.3242 9.45167Z" fill="black"/>
</svg>
