<svg width="20" height="20" viewBox="0 0 20 20" fill="none" xmlns="http://www.w3.org/2000/svg">
<path fill-rule="evenodd" clip-rule="evenodd" d="M14.8004 12.95L10.0004 15.7058L5.20036 12.95L6.61202 12.3491L9.58536 14.0558C9.71369 14.13 9.85702 14.1666 10.0004 14.1666C10.1437 14.1666 10.2862 14.13 10.4154 14.0558L13.3887 12.3483L14.8004 12.95ZM9.58536 10.7225C9.71369 10.7966 9.85702 10.8333 10.0004 10.8333C10.1437 10.8333 10.2862 10.7966 10.4154 10.7225L13.3887 9.01496L14.8004 9.61663L10.0004 12.3725L5.20036 9.61663L6.61202 9.01496L9.58536 10.7225ZM10.0004 4.23913L14.8004 6.2833L10.0004 9.03913L5.20036 6.2833L10.0004 4.23913ZM17.4987 9.45663C17.4795 9.1408 17.2837 8.8633 16.9929 8.73913L15.1995 7.9758L17.082 6.89496C17.3562 6.7383 17.517 6.43913 17.4987 6.1233C17.4795 5.8083 17.2837 5.52996 16.9929 5.4058L10.3262 2.56663C10.1179 2.47746 9.88202 2.47746 9.67369 2.56663L3.00702 5.4058C2.71619 5.52996 2.52036 5.8083 2.50202 6.1233C2.48286 6.43913 2.64452 6.7383 2.91869 6.89496L4.80036 7.9758L3.00702 8.73913C2.71619 8.8633 2.52036 9.1408 2.50202 9.45663C2.48286 9.77246 2.64452 10.0716 2.91869 10.2283L4.80036 11.3091L3.00702 12.0725C2.71619 12.1966 2.52036 12.4741 2.50202 12.79C2.48286 13.1058 2.64452 13.405 2.91869 13.5616L9.58536 17.3891C9.71369 17.4633 9.85702 17.5 10.0004 17.5C10.1437 17.5 10.2862 17.4633 10.4154 17.3891L17.082 13.5616C17.3562 13.405 17.517 13.1058 17.4987 12.79C17.4795 12.475 17.2837 12.1966 16.9937 12.0725L15.2004 11.3083L17.082 10.2283C17.3562 10.0716 17.517 9.77246 17.4987 9.45663Z" fill="black"/>
</svg>
