<svg width="21" height="21" viewBox="0 0 21 21" fill="none" xmlns="http://www.w3.org/2000/svg">
<path fill-rule="evenodd" clip-rule="evenodd" d="M3.44362 5.25H17.5565C18.0071 5.25 18.3755 5.61838 18.3755 6.069V6.181C18.3755 6.63162 18.0071 7 17.5565 7H3.44362C2.993 7 2.6255 6.63162 2.6255 6.181V6.069C2.6255 5.61838 2.993 5.25 3.44362 5.25ZM4.375 10.5C4.375 10.9839 3.983 11.375 3.5 11.375C3.017 11.375 2.625 10.9839 2.625 10.5C2.625 10.0161 3.017 9.625 3.5 9.625C3.983 9.625 4.375 10.0161 4.375 10.5ZM6.94356 9.625H17.5564C18.0071 9.625 18.3754 9.99337 18.3754 10.444V10.556C18.3754 11.0066 18.0071 11.375 17.5564 11.375H6.94356C6.49294 11.375 6.12544 11.0066 6.12544 10.556V10.444C6.12544 9.99337 6.49294 9.625 6.94356 9.625ZM17.5565 14H3.44362C2.993 14 2.6255 14.3684 2.6255 14.819V14.931C2.6255 15.3816 2.993 15.75 3.44362 15.75H17.5565C18.0071 15.75 18.3755 15.3816 18.3755 14.931V14.819C18.3755 14.3684 18.0071 14 17.5565 14Z" fill="black"/>
</svg>
