<svg width="20" height="20" viewBox="0 0 20 20" fill="none" xmlns="http://www.w3.org/2000/svg">
<g clip-path="url(#clip0_3_648)">
<path d="M3.75 11.25C3.75 11.7445 3.89662 12.2278 4.17133 12.6389C4.44603 13.05 4.83648 13.3705 5.29329 13.5597C5.75011 13.7489 6.25277 13.7984 6.73773 13.702C7.22268 13.6055 7.66814 13.3674 8.01777 13.0178C8.3674 12.6681 8.6055 12.2227 8.70196 11.7377C8.79843 11.2528 8.74892 10.7501 8.5597 10.2933C8.37048 9.83648 8.05005 9.44603 7.63893 9.17133C7.2278 8.89662 6.74445 8.75 6.25 8.75C5.58696 8.75 4.95107 9.01339 4.48223 9.48223C4.01339 9.95107 3.75 10.587 3.75 11.25ZM7.5 11.25C7.5 11.4972 7.42669 11.7389 7.28934 11.9445C7.15199 12.15 6.95676 12.3102 6.72835 12.4049C6.49995 12.4995 6.24861 12.5242 6.00614 12.476C5.76366 12.4278 5.54093 12.3087 5.36612 12.1339C5.1913 11.9591 5.07225 11.7363 5.02402 11.4939C4.97579 11.2514 5.00054 11.0001 5.09515 10.7716C5.18976 10.5432 5.34998 10.348 5.55554 10.2107C5.7611 10.0733 6.00277 10 6.25 10C6.58152 10 6.89946 10.1317 7.13388 10.3661C7.3683 10.6005 7.5 10.9185 7.5 11.25ZM9.375 15H3.125C2.2962 15 1.50134 15.3292 0.915291 15.9153C0.32924 16.5013 0 17.2962 0 18.125C0 18.6223 0.197544 19.0992 0.549175 19.4508C0.900805 19.8025 1.37772 20 1.875 20H10.625C11.1223 20 11.5992 19.8025 11.9508 19.4508C12.3025 19.0992 12.5 18.6223 12.5 18.125C12.5 17.2962 12.1708 16.5013 11.5847 15.9153C10.9987 15.3292 10.2038 15 9.375 15ZM10.625 18.75H1.875C1.70924 18.75 1.55027 18.6842 1.43306 18.5669C1.31585 18.4497 1.25 18.2908 1.25 18.125C1.25 17.6277 1.44754 17.1508 1.79917 16.7992C2.15081 16.4475 2.62772 16.25 3.125 16.25H9.375C9.87228 16.25 10.3492 16.4475 10.7008 16.7992C11.0525 17.1508 11.25 17.6277 11.25 18.125C11.25 18.2908 11.1842 18.4497 11.0669 18.5669C10.9497 18.6842 10.7908 18.75 10.625 18.75ZM20 0.625V10.625C20 10.7908 19.9342 10.9497 19.8169 11.0669C19.6997 11.1842 19.5408 11.25 19.375 11.25H12.5V12.5H15.625C15.7908 12.5 15.9497 12.5658 16.0669 12.6831C16.1842 12.8003 16.25 12.9592 16.25 13.125C16.25 13.2908 16.1842 13.4497 16.0669 13.5669C15.9497 13.6842 15.7908 13.75 15.625 13.75H10.625C10.4592 13.75 10.3003 13.6842 10.1831 13.5669C10.0658 13.4497 10 13.2908 10 13.125C10 12.9592 10.0658 12.8003 10.1831 12.6831C10.3003 12.5658 10.4592 12.5 10.625 12.5H11.25V11.25H10.625C10.4592 11.25 10.3003 11.1842 10.1831 11.0669C10.0658 10.9497 10 10.7908 10 10.625C10 10.4592 10.0658 10.3003 10.1831 10.1831C10.3003 10.0658 10.4592 10 10.625 10H18.75V1.25H5V6.875C5 7.04076 4.93415 7.19973 4.81694 7.31694C4.69973 7.43415 4.54076 7.5 4.375 7.5C4.20924 7.5 4.05027 7.43415 3.93306 7.31694C3.81585 7.19973 3.75 7.04076 3.75 6.875V0.625C3.75 0.45924 3.81585 0.300269 3.93306 0.183058C4.05027 0.065848 4.20924 0 4.375 0L19.375 0C19.5408 0 19.6997 0.065848 19.8169 0.183058C19.9342 0.300269 20 0.45924 20 0.625ZM8.125 7.5C8.04303 7.501 7.96176 7.48483 7.88641 7.45254C7.81106 7.42025 7.74331 7.37255 7.6875 7.3125C7.62771 7.25639 7.58006 7.18862 7.54748 7.11337C7.51491 7.03812 7.4981 6.957 7.4981 6.875C7.4981 6.793 7.51491 6.71188 7.54748 6.63663C7.58006 6.56138 7.62771 6.49361 7.6875 6.4375L10.1875 3.9375C10.2436 3.87771 10.3114 3.83006 10.3866 3.79748C10.4619 3.76491 10.543 3.7481 10.625 3.7481C10.707 3.7481 10.7881 3.76491 10.8634 3.79748C10.9386 3.83006 11.0064 3.87771 11.0625 3.9375L13.125 5.9875L16.4375 2.6875C16.495 2.63005 16.5632 2.58447 16.6382 2.55338C16.7133 2.52229 16.7937 2.50628 16.875 2.50628C16.9563 2.50628 17.0367 2.52229 17.1118 2.55338C17.1868 2.58447 17.255 2.63005 17.3125 2.6875C17.37 2.74495 17.4155 2.81316 17.4466 2.88823C17.4777 2.96329 17.4937 3.04375 17.4937 3.125C17.4937 3.20625 17.4777 3.28671 17.4466 3.36177C17.4155 3.43684 17.37 3.50505 17.3125 3.5625L13.5625 7.3125C13.5064 7.37229 13.4386 7.41994 13.3634 7.45252C13.2881 7.48509 13.207 7.5019 13.125 7.5019C13.043 7.5019 12.9619 7.48509 12.8866 7.45252C12.8114 7.41994 12.7436 7.37229 12.6875 7.3125L10.625 5.2625L8.5625 7.3125C8.50669 7.37255 8.43894 7.42025 8.36359 7.45254C8.28824 7.48483 8.20697 7.501 8.125 7.5Z" fill="black"/>
</g>
<defs>
<clipPath id="clip0_3_648">
<rect width="20" height="20" fill="white"/>
</clipPath>
</defs>
</svg>
