<svg width="20" height="20" viewBox="0 0 20 20" fill="none" xmlns="http://www.w3.org/2000/svg">
<path fill-rule="evenodd" clip-rule="evenodd" d="M11.1858 0.22989C10.6168 -0.0691169 9.92416 -0.0769121 9.34777 0.209234L1.01742 4.34435C0.391363 4.65512 0 5.26356 0 5.92611V14.0739C0 14.7364 0.391363 15.3449 1.01742 15.6556L9.34777 19.7908C9.92416 20.0769 10.6168 20.0692 11.1858 19.77L19.0231 15.6508C19.6266 15.3336 20 14.7368 20 14.0897V5.91027C20 5.26315 19.6266 4.66635 19.0231 4.34917L11.1858 0.22989ZM10.1668 1.6507C10.2179 1.62531 10.2794 1.62601 10.3298 1.65253L12.502 2.79422L10.2019 4.04832L7.98863 2.73192L10.1668 1.6507ZM6.21569 3.61199L2.71502 5.34971C3.23798 5.58887 3.87294 5.87751 4.57053 6.19104C4.87203 6.32655 5.18488 6.46653 5.50516 6.60906L8.50486 4.97356L6.21569 3.61199ZM10.1623 5.95941L7.42367 7.45258C8.4003 7.87615 9.37529 8.28896 10.2506 8.64221C11.0359 8.30646 11.9054 7.9173 12.7801 7.51646L10.1623 5.95941ZM13.3178 9.0876C12.5674 9.43009 11.8229 9.76258 11.1339 10.0591V10.0605V10.0828V10.1052V10.1274V10.1496V10.1716V10.1937V10.2158V10.2378V10.2598V10.2817V10.3035V10.3253V10.3471V10.3689V10.3906V10.4121V10.4338V10.4554V10.4769V10.4983V10.5197V10.5412V10.5626V10.5838V10.6051V10.6263V10.6474V10.6686V10.6897V10.7108V10.7318V10.7528V10.7737V10.7946V10.8155V10.8364V10.8571V10.8779V10.8985V10.9192V10.9398V10.9604V10.9809V11.0015V11.0219V11.0424V11.0628V11.0832V11.1035V11.1238V11.144V11.1642V11.1845V11.2046V11.2247V11.2448V11.2648V11.2848V11.3047V11.3247V11.3446V11.3644V11.3842V11.4041V11.4238V11.4435V11.4632V11.483V11.5025V11.5221V11.5417V11.5613V11.5808V11.6002V11.6197V11.6391V11.6584V11.6778V11.6971V11.7164V11.7356V11.7549V11.7741V11.7932V11.8124V11.8315V11.8505V11.8696V11.8886V11.9076V11.9266V11.9456V11.9644V11.9833V12.0021V12.0209V12.0397V12.0585V12.0773V12.096V12.1147V12.1333V12.152V12.1705V12.1891V12.2078V12.2263V12.2447V12.2633V12.2817V12.3001V12.3185V12.3369V12.3553V12.3736V12.3919V12.4103V12.4284V12.4467V12.465V12.4831V12.5013V12.5194V12.5376V12.5557V12.5737V12.5919V12.6099V12.6279V12.646V12.664V12.6819V12.6999V12.7178V12.7357V12.7535V12.7714V12.7893V12.8071V12.825V12.8427V12.8605V12.8782V12.896V12.9138V12.9314V12.9491V12.9668V12.9844V13.002V13.0196V13.0373V13.0549V13.0724V13.09V13.1075V13.125V13.1425V13.16V13.1775V13.195V13.2124V13.2299V13.2472V13.2647V13.2821V13.2995V13.3168V13.3342V13.3516V13.3688V13.3862V13.4035V13.4208V13.438V13.4554V13.4726V13.4898V13.5071V13.5243V13.5415V13.5586V13.5759V13.5931V13.6102V13.6275V13.6446V13.6617V13.6789V13.696V13.7131V13.7302V13.7473V13.7644V13.7815V13.7986V13.8156V13.8327V13.8498V13.8668V13.8839V13.9009V13.918V13.9349V13.9521V13.969V13.986V14.003V14.0201V14.0371V14.054V14.071V14.088V14.105V14.1219V14.1389V14.1559V14.1729V14.1898V14.2068V14.2238V14.2406V14.2576V14.2746V14.2915V14.3085V14.3254V14.3423V14.3593V14.3763V14.3931V14.4101V14.4271V14.444V14.4609V14.4779V14.4948V14.5118V14.5287V14.5456V14.5626V14.5796V14.5966V14.6134V14.6304V14.6473V14.6643V14.6813V14.6983V14.7152V14.7322V14.7492V14.7662V14.7831V14.8001V14.8171V14.8341V14.851V14.8681V14.8851V14.9021V14.9192V14.9362V14.9531V14.9702V14.9872V15.0043V15.0214V15.0384V15.0555V15.0726V15.0897V15.1068V15.1239V15.141V15.1581V15.1752V15.1923V15.2096V15.2267V15.2439V15.261V15.2783V15.2954V15.3126V15.3298V15.3471V15.3643V15.3815V15.3988V15.416V15.4334V15.4506V15.468V15.4852V15.5026V15.5199V15.5373V15.5547V15.572V15.5894V15.6068V15.6243V15.6416V15.6591V15.6766V15.6941V15.7116V15.7291V15.7466V15.7641V15.7817V15.7992V15.8169V15.8345V15.8521V15.8697V15.8874V15.905V15.9228V15.9404V15.9581V15.9759V15.9937V16.0114V16.0292V16.0469V16.0648V16.0827V16.1006V16.1185V16.1364V16.1543V16.1722V16.1902V16.2082V16.2262V16.2442V16.2622V16.2803V16.2984V16.3166V16.3346V16.3527V16.371V16.3892V16.4074V16.4256V16.4439V16.4621V16.4806V16.4988V16.5173V16.5355V16.5539V16.5725V16.5909V16.6093V16.6278V16.6464V16.6649V16.6836V16.7021V16.7208V16.7395V16.7582V16.7768V16.7956V16.8143V16.8331V16.8519V16.8708V16.8896V16.9086V16.9275V16.9464V16.9655V16.9844V17.0035V17.0226V17.0418V17.0608V17.08V17.0992V17.1184V17.1377V17.1569V17.1762V17.1957V17.215V17.2345V17.2538V17.2734V17.2928V17.3124V17.3319V17.3515V17.3712V17.3908V17.4105V17.4302V17.45V17.4698V17.4896V17.5095V17.5294V17.5494V17.5693V17.5894V17.6093V17.6295V17.6496V17.6697V17.6899V17.7101V17.7304V17.7506V17.771V17.7914V17.8117V17.8321V17.8526V17.8731V17.8937V17.9142V17.9248L13.353 16.7584C13.3301 16.6854 13.3178 16.6081 13.3178 16.5282V9.0876ZM15.0641 15.8592V8.27934C15.5223 8.06461 15.9678 7.85394 16.3884 7.65373C17.0975 7.31629 17.7384 7.00752 18.2538 6.75772V14.0897C18.2538 14.1471 18.2207 14.2 18.1672 14.2282L15.0641 15.8592ZM14.606 6.66787L11.8593 5.03417L14.2665 3.72167L17.3647 5.35007C16.8678 5.59074 16.2622 5.88229 15.5962 6.19927C15.2778 6.35078 14.946 6.50788 14.606 6.66787ZM3.8138 7.66196C4.17308 7.82344 4.54938 7.99169 4.93598 8.16338V15.7528L1.83647 14.2141C1.78094 14.1866 1.74622 14.1326 1.74622 14.0739V6.7236C2.30683 6.98046 3.01991 7.30516 3.8138 7.66196ZM6.6822 16.5281C6.6822 16.5581 6.68047 16.5878 6.67707 16.617L9.38772 17.9625V17.9556V17.9349V17.9142V17.8937V17.8731V17.8526V17.8321V17.8117V17.7914V17.771V17.7506V17.7304V17.7101V17.6899V17.6697V17.6496V17.6295V17.6093V17.5894V17.5693V17.5494V17.5294V17.5095V17.4896V17.4698V17.45V17.4302V17.4105V17.3908V17.3712V17.3515V17.3319V17.3124V17.2928V17.2734V17.2538V17.2345V17.215V17.1957V17.1762V17.1569V17.1377V17.1184V17.0992V17.08V17.0608V17.0418V17.0226V17.0035V16.9844V16.9655V16.9464V16.9275V16.9086V16.8896V16.8708V16.8519V16.8331V16.8143V16.7956V16.7768V16.7582V16.7395V16.7208V16.7021V16.6836V16.6649V16.6464V16.6278V16.6093V16.5909V16.5725V16.5539V16.5355V16.5173V16.4988V16.4806V16.4621V16.4439V16.4256V16.4074V16.3892V16.371V16.3527V16.3346V16.3166V16.2984V16.2803V16.2622V16.2442V16.2262V16.2082V16.1902V16.1722V16.1543V16.1364V16.1185V16.1006V16.0827V16.0648V16.0469V16.0292V16.0114V15.9937V15.9759V15.9581V15.9404V15.9228V15.905V15.8874V15.8697V15.8521V15.8345V15.8169V15.7992V15.7817V15.7641V15.7466V15.7291V15.7116V15.6941V15.6766V15.6591V15.6416V15.6243V15.6068V15.5894V15.572V15.5547V15.5373V15.5199V15.5026V15.4852V15.468V15.4506V15.4334V15.416V15.3988V15.3815V15.3643V15.3471V15.3298V15.3126V15.2954V15.2783V15.261V15.2439V15.2267V15.2096V15.1923V15.1752V15.1581V15.141V15.1239V15.1068V15.0897V15.0726V15.0555V15.0384V15.0214V15.0043V14.9872V14.9702V14.9531V14.9362V14.9192V14.9021V14.8851V14.8681V14.851V14.8341V14.8171V14.8001V14.7831V14.7662V14.7492V14.7322V14.7152V14.6983V14.6813V14.6643V14.6473V14.6304V14.6134V14.5966V14.5796V14.5626V14.5456V14.5287V14.5118V14.4948V14.4779V14.4609V14.444V14.4271V14.4101V14.3931V14.3763V14.3593V14.3423V14.3254V14.3085V14.2915V14.2746V14.2576V14.2406V14.2238V14.2068V14.1898V14.1729V14.1559V14.1389V14.1219V14.105V14.088V14.071V14.054V14.0371V14.0201V14.003V13.986V13.969V13.9521V13.9349V13.918V13.9009V13.8839V13.8668V13.8498V13.8327V13.8156V13.7986V13.7815V13.7644V13.7473V13.7302V13.7131V13.696V13.6789V13.6617V13.6446V13.6275V13.6102V13.5931V13.5759V13.5586V13.5415V13.5243V13.5071V13.4898V13.4726V13.4554V13.438V13.4208V13.4035V13.3862V13.3688V13.3516V13.3342V13.3168V13.2995V13.2821V13.2647V13.2472V13.2299V13.2124V13.195V13.1775V13.16V13.1425V13.125V13.1075V13.09V13.0724V13.0549V13.0373V13.0196V13.002V12.9844V12.9668V12.9491V12.9314V12.9138V12.896V12.8782V12.8605V12.8427V12.825V12.8071V12.7893V12.7714V12.7535V12.7357V12.7178V12.6999V12.6819V12.664V12.646V12.6279V12.6099V12.5919V12.5737V12.5557V12.5376V12.5194V12.5013V12.4831V12.465V12.4467V12.4284V12.4103V12.3919V12.3736V12.3553V12.3369V12.3185V12.3001V12.2817V12.2633V12.2447V12.2263V12.2078V12.1891V12.1705V12.152V12.1333V12.1147V12.096V12.0773V12.0585V12.0397V12.0209V12.0021V11.9833V11.9644V11.9456V11.9266V11.9076V11.8886V11.8696V11.8505V11.8315V11.8124V11.7932V11.7741V11.7549V11.7356V11.7164V11.6971V11.6778V11.6584V11.6391V11.6197V11.6002V11.5808V11.5613V11.5417V11.5221V11.5025V11.483V11.4632V11.4435V11.4238V11.4041V11.3842V11.3644V11.3446V11.3247V11.3047V11.2848V11.2648V11.2448V11.2247V11.2046V11.1845V11.1642V11.144V11.1238V11.1035V11.0832V11.0628V11.0424V11.0219V11.0015V10.9809V10.9604V10.9398V10.9192V10.8985V10.8779V10.8571V10.8364V10.8155V10.7946V10.7737V10.7528V10.7318V10.7108V10.6897V10.6686V10.6474V10.6263V10.6051V10.5838V10.5626V10.5412V10.5197V10.4983V10.4769V10.4554V10.4338V10.4121V10.3906V10.3689V10.3471V10.3253V10.3035V10.2817V10.2598V10.2378V10.2158V10.1937V10.1716V10.1496V10.1274V10.1052V10.0828V10.0715C8.5385 9.72649 7.60923 9.33238 6.6822 8.93029V16.5281Z" fill="black"/>
</svg>
