<svg width="20" height="22" viewBox="0 0 20 22" fill="none" xmlns="http://www.w3.org/2000/svg">
<path fill-rule="evenodd" clip-rule="evenodd" d="M9.34777 0.230157C9.92416 -0.0846033 10.6168 -0.0760286 11.1858 0.252879L19.0231 4.78408C19.6266 5.13299 20 5.78946 20 6.5013V15.4986C20 16.2105 19.6266 16.867 19.0231 17.2159L11.1858 21.747C10.6168 22.0761 9.92416 22.0846 9.34777 21.7699L1.01742 17.2212C0.391363 16.8793 0 16.21 0 15.4813V6.51872C0 5.78991 0.391363 5.12063 1.01742 4.77878L9.34777 0.230157ZM10.3298 1.81778C10.2794 1.78861 10.2179 1.78785 10.1668 1.81577L2.71502 5.88468C3.23798 6.14776 3.87294 6.46526 4.57053 6.81014C4.97198 7.00861 5.39357 7.21583 5.82604 7.42675L9.29886 5.53048C9.82274 5.2444 10.4522 5.25218 10.9694 5.55113L14.3146 7.48521C14.7566 7.25729 15.1874 7.03317 15.5962 6.81919C16.2622 6.47052 16.8678 6.14981 17.3647 5.88508L10.3298 1.81778ZM12.8007 8.25774L10.2846 6.80305C10.1823 6.7439 10.0577 6.74235 9.95406 6.79895L7.40688 8.18983C8.38911 8.65856 9.37026 9.11563 10.2506 9.50643C11.042 9.1342 11.919 8.70233 12.8007 8.25774ZM4.76246 8.89486C4.4367 8.73542 4.1191 8.57909 3.8138 8.42815C3.01991 8.03568 2.30683 7.6785 1.74622 7.39596V15.4813C1.74622 15.5459 1.78094 15.6052 1.83647 15.6355L9.38772 19.7588V19.7512V19.7283V19.7057V19.6831V19.6604V19.6379V19.6153V19.5929V19.5705V19.5481V19.5257V19.5034V19.4812V19.4589V19.4366V19.4145V19.3924V19.3703V19.3483V19.3262V19.3044V19.2824V19.2604V19.2386V19.2167V19.1951V19.1732V19.1515V19.1298V19.1083V19.0866V19.0651V19.0437V19.0221V19.0007V18.9792V18.9579V18.9365V18.9153V18.8939V18.8726V18.8515V18.8302V18.8091V18.788V18.7669V18.7459V18.7248V18.7038V18.6829V18.6621V18.6411V18.6203V18.5994V18.5786V18.5579V18.5371V18.5164V18.4957V18.4752V18.4545V18.434V18.4134V18.3929V18.3724V18.352V18.3314V18.311V18.2906V18.2702V18.25V18.2297V18.2093V18.1891V18.169V18.1487V18.1286V18.1084V18.0883V18.0681V18.0482V18.0281V18.0081V17.988V17.968V17.9482V17.9283V17.9083V17.8885V17.8687V17.8488V17.829V17.8092V17.7894V17.7697V17.75V17.7303V17.7107V17.691V17.6713V17.6516V17.6321V17.6126V17.593V17.5735V17.554V17.5344V17.515V17.4955V17.4761V17.4567V17.4373V17.4179V17.3986V17.3792V17.3599V17.3405V17.3213V17.302V17.2828V17.2635V17.2443V17.2251V17.2058V17.1867V17.1675V17.1484V17.1293V17.1102V17.091V17.0719V17.0528V17.0337V17.0148V16.9957V16.9767V16.9576V16.9387V16.9197V16.9007V16.8818V16.8628V16.8439V16.8249V16.8061V16.7871V16.7683V16.7494V16.7305V16.7116V16.6928V16.674V16.6551V16.6363V16.6175V16.5987V16.5799V16.5611V16.5422V16.5236V16.5147C9.35783 16.5006 9.32821 16.4855 9.29886 16.4694L5.67684 14.4917C5.10784 14.181 4.75215 13.5727 4.75215 12.9103V9.08959C4.75215 9.02408 4.75563 8.95909 4.76246 8.89486ZM9.38772 14.8917L6.33209 13.2233C6.21951 13.1618 6.14913 13.0415 6.14913 12.9103V9.56793C7.24947 10.0972 8.37549 10.6263 9.38772 11.0786V11.0911V11.1157V11.1401V11.1645V11.1888V11.2131V11.2373V11.2616V11.2857V11.3099V11.3339V11.3579V11.3818V11.4058V11.4297V11.4534V11.4772V11.5009V11.5246V11.5482V11.5717V11.5953V11.6188V11.6422V11.6656V11.6889V11.7122V11.7354V11.7587V11.7818V11.805V11.8281V11.8511V11.874V11.897V11.92V11.9428V11.9657V11.9884V12.0111V12.0338V12.0565V12.079V12.1017V12.1241V12.1467V12.1691V12.1915V12.2139V12.2361V12.2584V12.2807V12.3029V12.325V12.3472V12.3693V12.3913V12.4132V12.4352V12.4572V12.479V12.5008V12.5227V12.5445V12.5662V12.5879V12.6096V12.6313V12.6528V12.6743V12.6959V12.7174V12.7388V12.7602V12.7816V12.803V12.8243V12.8455V12.8668V12.8881V12.9092V12.9304V12.9515V12.9725V12.9936V13.0146V13.0356V13.0565V13.0775V13.0983V13.1193V13.1401V13.1608V13.1816V13.2023V13.223V13.2437V13.2644V13.285V13.3056V13.3261V13.3467V13.3672V13.3876V13.408V13.4285V13.4489V13.4692V13.4896V13.5098V13.5301V13.5503V13.5706V13.5908V13.6109V13.631V13.6513V13.6713V13.6914V13.7115V13.7314V13.7514V13.7714V13.7913V13.8113V13.8311V13.8511V13.8709V13.8907V13.9106V13.9304V13.95V13.9699V13.9895V14.0092V14.0289V14.0486V14.0683V14.0878V14.1075V14.127V14.1465V14.1661V14.1856V14.2051V14.2245V14.2441V14.2634V14.2828V14.3022V14.3216V14.341V14.3604V14.3796V14.399V14.4183V14.4375V14.4568V14.476V14.4953V14.5145V14.5336V14.5529V14.572V14.5912V14.6103V14.6294V14.6485V14.6676V14.6867V14.7057V14.7248V14.7439V14.7628V14.7818V14.8009V14.8199V14.8388V14.8578V14.8767V14.8917ZM11.1339 14.706V14.6867V14.6676V14.6485V14.6294V14.6103V14.5912V14.572V14.5529V14.5336V14.5145V14.4953V14.476V14.4568V14.4375V14.4183V14.399V14.3796V14.3604V14.341V14.3216V14.3022V14.2828V14.2634V14.2441V14.2245V14.2051V14.1856V14.1661V14.1465V14.127V14.1075V14.0878V14.0683V14.0486V14.0289V14.0092V13.9895V13.9699V13.95V13.9304V13.9106V13.8907V13.8709V13.8511V13.8311V13.8113V13.7913V13.7714V13.7514V13.7314V13.7115V13.6914V13.6713V13.6513V13.631V13.6109V13.5908V13.5706V13.5503V13.5301V13.5098V13.4896V13.4692V13.4489V13.4285V13.408V13.3876V13.3672V13.3467V13.3261V13.3056V13.285V13.2644V13.2437V13.223V13.2023V13.1816V13.1608V13.1401V13.1193V13.0983V13.0775V13.0565V13.0356V13.0146V12.9936V12.9725V12.9515V12.9304V12.9092V12.8881V12.8668V12.8455V12.8243V12.803V12.7816V12.7602V12.7388V12.7174V12.6959V12.6743V12.6528V12.6313V12.6096V12.5879V12.5662V12.5445V12.5227V12.5008V12.479V12.4572V12.4352V12.4132V12.3913V12.3693V12.3472V12.325V12.3029V12.2807V12.2584V12.2361V12.2139V12.1915V12.1691V12.1467V12.1241V12.1017V12.079V12.0565V12.0338V12.0111V11.9884V11.9657V11.9428V11.92V11.897V11.874V11.8511V11.8281V11.805V11.7818V11.7587V11.7354V11.7122V11.6889V11.6656V11.6422V11.6188V11.5953V11.5717V11.5482V11.5246V11.5009V11.4772V11.4534V11.4297V11.4058V11.3818V11.3579V11.3339V11.3099V11.2857V11.2616V11.2373V11.2131V11.1888V11.1645V11.1401V11.1157V11.0911V11.0666V11.065C11.986 10.6617 12.9226 10.1978 13.8509 9.72747V12.9278C13.8509 13.0558 13.7839 13.1739 13.6753 13.2366L11.1339 14.706ZM11.1339 16.3537L14.36 14.4885C14.9084 14.1714 15.2479 13.5747 15.2479 12.9278V9.07217C15.2479 9.05235 15.2476 9.03257 15.2469 9.01287C15.6409 8.80936 16.0239 8.60992 16.3884 8.41911C17.0975 8.04791 17.7384 7.70828 18.2538 7.43349V15.4986C18.2538 15.5618 18.2207 15.62 18.1672 15.651L11.1339 19.7173V19.7057V19.6831V19.6604V19.6379V19.6153V19.5929V19.5705V19.5481V19.5257V19.5034V19.4812V19.4589V19.4366V19.4145V19.3924V19.3703V19.3483V19.3262V19.3044V19.2824V19.2604V19.2386V19.2167V19.1951V19.1732V19.1515V19.1298V19.1083V19.0866V19.0651V19.0437V19.0221V19.0007V18.9792V18.9579V18.9365V18.9153V18.8939V18.8726V18.8515V18.8302V18.8091V18.788V18.7669V18.7459V18.7248V18.7038V18.6829V18.6621V18.6411V18.6203V18.5994V18.5786V18.5579V18.5371V18.5164V18.4957V18.4752V18.4545V18.434V18.4134V18.3929V18.3724V18.352V18.3314V18.311V18.2906V18.2702V18.25V18.2297V18.2093V18.1891V18.169V18.1487V18.1286V18.1084V18.0883V18.0681V18.0482V18.0281V18.0081V17.988V17.968V17.9482V17.9283V17.9083V17.8885V17.8687V17.8488V17.829V17.8092V17.7894V17.7697V17.75V17.7303V17.7107V17.691V17.6713V17.6516V17.6321V17.6126V17.593V17.5735V17.554V17.5344V17.515V17.4955V17.4761V17.4567V17.4373V17.4179V17.3986V17.3792V17.3599V17.3405V17.3213V17.302V17.2828V17.2635V17.2443V17.2251V17.2058V17.1867V17.1675V17.1484V17.1293V17.1102V17.091V17.0719V17.0528V17.0337V17.0148V16.9957V16.9767V16.9576V16.9387V16.9197V16.9007V16.8818V16.8628V16.8439V16.8249V16.8061V16.7871V16.7683V16.7494V16.7305V16.7116V16.6928V16.674V16.6551V16.6363V16.6175V16.5987V16.5799V16.5611V16.5422V16.5236V16.5048V16.4859V16.4673V16.4485V16.4298V16.4111V16.3923V16.3736V16.3537Z" fill="black"/>
</svg>
