<svg width="20" height="20" viewBox="0 0 20 20" fill="none" xmlns="http://www.w3.org/2000/svg">
<path fill-rule="evenodd" clip-rule="evenodd" d="M8.18619 2.68092C8.05791 2.89177 8.05791 3.15164 8.18619 3.36248L8.78173 4.34135C8.9098 4.55186 9.1463 4.68152 9.4022 4.68152L10.5978 4.68151C10.8537 4.68151 11.0902 4.55186 11.2183 4.34135L11.8139 3.36248C11.942 3.15164 11.942 2.89177 11.8139 2.68092L11.2183 1.70205C11.0902 1.49154 10.8537 1.36189 10.5978 1.36189H9.4022C9.1463 1.36189 8.9098 1.49154 8.78173 1.70205L8.18619 2.68092ZM8.57514 0C8.31923 0 8.08272 0.129652 7.95465 0.340159L6.53055 2.68092C6.40228 2.89177 6.40228 3.15164 6.53055 3.36248L7.95465 5.70324C8.08272 5.91375 8.31923 6.0434 8.57515 6.0434H11.4249C11.6807 6.0434 11.9172 5.91375 12.0454 5.70324L13.4694 3.36248C13.5977 3.15164 13.5977 2.89177 13.4694 2.68092L12.0454 0.340159C11.9172 0.129652 11.6807 0 11.4249 0H8.57514ZM14.6206 6.17008C14.4923 6.38093 14.4923 6.6408 14.6206 6.85164L15.216 7.83051C15.3442 8.04102 15.5807 8.17067 15.8365 8.17067H17.0321C17.288 8.17067 17.5245 8.04102 17.6526 7.83051L18.2482 6.85164C18.3764 6.6408 18.3764 6.38093 18.2482 6.17008L17.6526 5.19121C17.5245 4.9807 17.288 4.85105 17.0321 4.85105H15.8365C15.5807 4.85105 15.3442 4.9807 15.216 5.19121L14.6206 6.17008ZM15.0095 3.48916C14.7536 3.48916 14.5171 3.61881 14.389 3.82932L12.9649 6.17008C12.8366 6.38093 12.8366 6.6408 12.9649 6.85164L14.389 9.1924C14.5171 9.40291 14.7536 9.53256 15.0095 9.53256H17.8592C18.1151 9.53256 18.3516 9.40291 18.4797 9.1924L19.9038 6.85164C20.0321 6.6408 20.0321 6.38093 19.9038 6.17008L18.4797 3.82932C18.3516 3.61881 18.1151 3.48916 17.8592 3.48916H15.0095ZM9.4022 11.6598C9.1463 11.6598 8.9098 11.5301 8.78173 11.3197L8.18619 10.3408C8.05791 10.13 8.05791 9.87008 8.18619 9.65924L8.78173 8.68037C8.9098 8.46986 9.1463 8.34021 9.4022 8.34021H10.5978C10.8537 8.34021 11.0902 8.46986 11.2183 8.68037L11.8139 9.65924C11.942 9.87009 11.942 10.13 11.8139 10.3408L11.2183 11.3197C11.0902 11.5301 10.8537 11.6598 10.5978 11.6598H9.4022ZM6.53055 10.3408C6.40228 10.13 6.40228 9.87009 6.53055 9.65924L7.95465 7.31848C8.08272 7.10797 8.31923 6.97832 8.57515 6.97832H11.4249C11.6807 6.97832 11.9172 7.10797 12.0454 7.31848L13.4694 9.65924C13.5977 9.87009 13.5977 10.13 13.4694 10.3408L12.0454 12.6816C11.9172 12.892 11.6807 13.0217 11.4249 13.0217H8.57514C8.31923 13.0217 8.08272 12.892 7.95465 12.6816L6.53055 10.3408ZM1.75183 6.17008C1.62356 6.38093 1.62356 6.6408 1.75183 6.85164L2.34738 7.83051C2.47545 8.04102 2.71195 8.17067 2.96786 8.17067H4.16344C4.41935 8.17067 4.65585 8.04102 4.78392 7.83051L5.37947 6.85164C5.50774 6.6408 5.50774 6.38093 5.37947 6.17008L4.78392 5.19121C4.65585 4.9807 4.41935 4.85105 4.16344 4.85105H2.96786C2.71195 4.85105 2.47545 4.9807 2.34738 5.19121L1.75183 6.17008ZM2.1408 3.48916C1.88488 3.48916 1.64838 3.61881 1.52031 3.82932L0.0962109 6.17008C-0.0320631 6.38093 -0.0320775 6.6408 0.0962109 6.85164L1.52031 9.1924C1.64838 9.40291 1.88488 9.53256 2.1408 9.53256H4.9905C5.24642 9.53256 5.48291 9.40291 5.61099 9.1924L7.0351 6.85164C7.16338 6.6408 7.16338 6.38093 7.0351 6.17008L5.61099 3.82932C5.48291 3.61881 5.24642 3.48916 4.9905 3.48916H2.1408ZM2.96786 15.149C2.71195 15.149 2.47545 15.0193 2.34738 14.8089L1.75183 13.83C1.62356 13.6191 1.62356 13.3593 1.75185 13.1483L2.34738 12.1695C2.47545 11.959 2.71195 11.8293 2.96786 11.8293H4.16344C4.41935 11.8293 4.65585 11.959 4.78392 12.1695L5.37947 13.1483C5.50774 13.3593 5.50774 13.6191 5.37947 13.83L4.78392 14.8089C4.65585 15.0193 4.41935 15.149 4.16344 15.149H2.96786ZM0.0962109 13.83C-0.0320631 13.6191 -0.0320775 13.3593 0.0962109 13.1483L1.52031 10.8077C1.64838 10.5971 1.88488 10.4675 2.1408 10.4675H4.9905C5.24642 10.4675 5.48291 10.5971 5.61099 10.8077L7.0351 13.1483C7.16338 13.3593 7.16338 13.6191 7.0351 13.83L5.61099 16.1708C5.48291 16.3812 5.24642 16.5108 4.9905 16.5108H2.1408C1.88488 16.5108 1.64838 16.3812 1.52031 16.1708L0.0962109 13.83ZM8.18619 16.6375C8.05791 16.8485 8.05791 17.1083 8.18619 17.3191L8.78173 18.298C8.9098 18.5085 9.1463 18.6381 9.4022 18.6381H10.5978C10.8537 18.6381 11.0902 18.5085 11.2183 18.298L11.8139 17.3191C11.942 17.1083 11.942 16.8485 11.8139 16.6375L11.2183 15.6587C11.0902 15.4482 10.8537 15.3185 10.5978 15.3185H9.4022C9.1463 15.3185 8.9098 15.4482 8.78173 15.6587L8.18619 16.6375ZM8.57514 13.9566C8.31923 13.9566 8.08272 14.0863 7.95465 14.2968L6.53055 16.6375C6.40228 16.8485 6.40228 17.1083 6.53055 17.3191L7.95465 19.6599C8.08272 19.8703 8.31923 20 8.57515 20H11.4249C11.6807 20 11.9172 19.8703 12.0454 19.6599L13.4694 17.3191C13.5977 17.1083 13.5977 16.8485 13.4694 16.6375L12.0454 14.2968C11.9172 14.0863 11.6807 13.9566 11.4249 13.9566H8.57514ZM15.8365 15.149C15.5807 15.149 15.3442 15.0193 15.216 14.8089L14.6206 13.83C14.4923 13.6191 14.4923 13.3593 14.6206 13.1483L15.216 12.1695C15.3442 11.959 15.5807 11.8293 15.8365 11.8293H17.0321C17.288 11.8293 17.5245 11.959 17.6526 12.1695L18.2482 13.1483C18.3764 13.3593 18.3764 13.6191 18.2482 13.83L17.6526 14.8089C17.5245 15.0193 17.288 15.149 17.0321 15.149H15.8365ZM12.9649 13.83C12.8366 13.6191 12.8366 13.3593 12.9649 13.1483L14.389 10.8077C14.5171 10.5971 14.7536 10.4675 15.0095 10.4675H17.8592C18.1151 10.4675 18.3516 10.5971 18.4797 10.8077L19.9038 13.1483C20.0321 13.3593 20.0321 13.6191 19.9038 13.83L18.4797 16.1708C18.3516 16.3812 18.1151 16.5108 17.8592 16.5108H15.0095C14.7536 16.5108 14.5171 16.3812 14.389 16.1708L12.9649 13.83Z" fill="black"/>
</svg>
